<svg xmlns="http://www.w3.org/2000/svg" xmlns:xlink="http://www.w3.org/1999/xlink" xmlns:fi="http://pattern.flaticon.com/" x="0" y="0" width="771" height="386" viewBox="0 0 899.5 450.33333333333337"><rect x="0px" y="0px" width="100%" height="100%" opacity="1" fill="#040112"/><defs><g transform="matrix(0.1351550966501236 0 0 0.1351550966501236 83 21)" id="L1_11"><path d="m356.757812 65.78125 15.171876-15.171875 21.859374 21.859375-15.171874 15.171875zm0 0" fill="#525453"/><path d="m381.832031 40.710938 15.171875-15.171876 21.859375 21.855469-15.175781 15.175781zm0 0" fill="#525453"/><path d="m406.902344 15.640625 15.171875-15.171875 21.859375 21.855469-15.171875 15.175781zm0 0" fill="#525453"/><path d="m309.550781 154.929688-20.078125-20.078126-48.085937 68.164063zm0 0" fill="#525453"/><path d="m331.6875 90.855469 15.175781-15.171875 21.855469 21.859375-15.171875 15.171875zm0 0" fill="#525453"/><path d="m40.078125 436.078125c11.121094 11.097656 29.125 11.097656 40.246094 0l255.1875-255.183594-15.914063-15.917969-103.257812 72.839844c-2.78125 1.964844-6.574219 1.640625-8.984375-.769531-2.410157-2.410156-2.734375-6.203125-.769531-8.988281l72.839843-103.253906-15.917969-15.914063-255.1875 255.1875c-11.09375 11.121094-11.09375 29.121094 0 40.242187zm0 0" fill="#525453"/><path d="m306.617188 115.929688 15.171874-15.171876 21.859376 21.859376-15.171876 15.171874zm0 0" fill="#525453"/></g><g transform="matrix(0.8599084646023447 -0.3224656795779436 0.3224656795779436 0.8599084646023447 262.2011699957793 205.17166203012977)" id="L1_12"><path d="M47.551,8.206A27.98,27.98,0,0,0,8.206,47.552Zm-6.238.581,1.415-1.414a1,1,0,1,1,1.414,1.414L42.728,10.2a1,1,0,1,1-1.415-1.414Zm-4.242,4.242,1.414-1.414A1,1,0,1,1,39.9,13.029l-1.414,1.414a1,1,0,1,1-1.414-1.414Zm-4.243,4.242,1.415-1.414a1,1,0,0,1,1.414,1.415l-1.415,1.415a1,1,0,0,1-1.414-1.416Zm-4.242,4.244L30,20.1a1,1,0,0,1,1.414,1.414L30,22.929a1,1,0,1,1-1.414-1.414Zm-4.243,4.242,1.415-1.414a1,1,0,1,1,1.414,1.415l-1.415,1.414a1,1,0,0,1-1.414-1.415ZM20.1,30l1.414-1.414A1,1,0,1,1,22.929,30l-1.414,1.414A1,1,0,0,1,20.1,30Zm-4.243,4.243,1.414-1.415a1,1,0,1,1,1.415,1.414l-1.415,1.415a1,1,0,1,1-1.414-1.414Zm-4.243,4.242,1.414-1.414a1,1,0,1,1,1.414,1.414L13.029,39.9a1,1,0,1,1-1.414-1.414ZM7.373,44.142a1,1,0,0,1,0-1.414l1.414-1.415A1,1,0,1,1,10.2,42.728L8.787,44.142a1,1,0,0,1-1.414,0Z" fill="#636363"/><path d="M10.934,50.48,50.48,10.934Q49.8,10.2,49.066,9.52L9.52,49.066Q10.2,49.8,10.934,50.48Z" fill="#636363"/><path d="M12.448,51.794A27.98,27.98,0,0,0,51.794,12.448Zm6.239-.581-1.415,1.414a1,1,0,1,1-1.414-1.414L17.272,49.8a1,1,0,1,1,1.415,1.414Zm4.242-4.242-1.414,1.414A1,1,0,0,1,20.1,46.971l1.414-1.414a1,1,0,1,1,1.414,1.414Zm4.243-4.243-1.415,1.414a1,1,0,0,1-1.414-1.414l1.415-1.415a1,1,0,1,1,1.414,1.415Zm4.242-4.243L30,39.9a1,1,0,0,1-1.414-1.414L30,37.071a1,1,0,0,1,1.414,1.414Zm4.243-4.243-1.415,1.415a1,1,0,1,1-1.414-1.414l1.415-1.415a1,1,0,1,1,1.414,1.414ZM39.9,30l-1.414,1.414A1,1,0,0,1,37.071,30l1.414-1.414A1,1,0,0,1,39.9,30Zm4.243-4.243-1.414,1.414a1,1,0,1,1-1.415-1.414l1.415-1.414a1,1,0,0,1,1.414,1.414Zm4.243-4.242-1.414,1.414a1,1,0,1,1-1.414-1.414L46.971,20.1a1,1,0,0,1,1.414,1.414Zm4.242-5.657a1,1,0,0,1,0,1.414l-1.414,1.414A1,1,0,0,1,49.8,17.272l1.414-1.414A1,1,0,0,1,52.627,15.858Z" fill="#636363"/></g></defs><g fi:class="KUsePattern"><pattern id="pattern_L1_11" width="350" height="350" patternUnits="userSpaceOnUse"><use xlink:href="#L1_11" x="-350" y="-350"/><use xlink:href="#L1_11" x="0" y="-350"/><use xlink:href="#L1_11" x="350" y="-350"/><use xlink:href="#L1_11" x="-350" y="0"/><use xlink:href="#L1_11" x="0" y="0"/><use xlink:href="#L1_11" x="350" y="0"/><use xlink:href="#L1_11" x="-350" y="350"/><use xlink:href="#L1_11" x="0" y="350"/><use xlink:href="#L1_11" x="350" y="350"/></pattern><rect x="0" y="0" width="100%" height="100%" fill="url(#pattern_L1_11)"/></g><g fi:class="KUsePattern"><pattern id="pattern_L1_12" width="350" height="350" patternUnits="userSpaceOnUse"><use xlink:href="#L1_12" x="-350" y="-350"/><use xlink:href="#L1_12" x="0" y="-350"/><use xlink:href="#L1_12" x="350" y="-350"/><use xlink:href="#L1_12" x="-350" y="0"/><use xlink:href="#L1_12" x="0" y="0"/><use xlink:href="#L1_12" x="350" y="0"/><use xlink:href="#L1_12" x="-350" y="350"/><use xlink:href="#L1_12" x="0" y="350"/><use xlink:href="#L1_12" x="350" y="350"/></pattern><rect x="0" y="0" width="100%" height="100%" fill="url(#pattern_L1_12)"/></g></svg>